<?xml version="1.0" standalone="no"?>
<!DOCTYPE svg PUBLIC "-//W3C//DTD SVG 20010904//EN"
 "http://www.w3.org/TR/2001/REC-SVG-20010904/DTD/svg10.dtd">
<svg version="1.0" xmlns="http://www.w3.org/2000/svg"
 width="76.000000pt" height="71.000000pt" viewBox="0 0 76.000000 71.000000"
 preserveAspectRatio="xMidYMid meet">
<metadata>
Created by potrace 1.15, written by Peter Selinger 2001-2017
</metadata>
<g transform="translate(0.000000,71.000000) scale(0.100000,-0.100000)"
fill="#000000" stroke="none">
<path d="M330 620 c-11 -11 -20 -32 -20 -47 0 -24 -8 -32 -53 -55 -38 -19 -62
-25 -88 -21 -47 6 -77 -10 -94 -51 -34 -80 39 -155 118 -123 30 13 36 12 84
-15 43 -25 51 -34 57 -66 11 -71 92 -125 160 -108 71 18 119 102 97 169 -19
58 -62 87 -128 87 -49 0 -59 -4 -87 -32 -18 -18 -35 -39 -37 -47 -4 -11 -15
-8 -51 13 l-45 26 5 49 c2 30 0 51 -7 55 -20 13 -12 25 35 52 34 20 48 24 57
15 16 -16 73 -14 91 5 9 8 16 31 16 49 0 58 -69 86 -110 45z m184 -255 c62
-30 83 -102 46 -162 -25 -41 -40 -42 -40 -3 l0 31 -57 -3 c-55 -3 -58 -4 -63
-33 l-6 -30 -22 35 c-39 62 -20 139 41 165 42 18 62 18 101 0z"/>
</g>
</svg>
